<svg width="1920" height="1080" xmlns="http://www.w3.org/2000/svg"><path fill="#3c00e0" d="M0 0h1920v1080H0z"/><path d="M0 1080V108c66.424-14.456 132.847-28.911 195-23 62.153 5.911 120.035 32.19 193 34 72.965 1.81 161.013-20.848 240-38s148.913-28.798 216-9c67.087 19.798 131.335 71.038 210 73 78.665 1.962 171.747-45.356 247-56 75.253-10.644 132.676 15.384 188 16 55.324.616 108.549-24.18 200-16s221.129 49.337 266 58c44.871 8.663 4.936-15.169-35-39v972z" fill="#0d0d0d" opacity=".06"/><path d="M0 1080V216c92.511-22.742 185.023-45.484 251-37 65.977 8.484 105.42 48.195 178 52 72.58 3.805 178.298-28.294 246-43s97.388-12.017 148-3c50.612 9.017 122.148 24.364 205 28 82.852 3.636 177.018-4.437 256-5 78.982-.563 142.779 6.385 207 6 64.221-.385 128.867-8.104 210 0 81.133 8.104 178.752 32.03 218 35 39.248 2.97 20.124-15.015 1-33v864z" fill="#0d0d0d" opacity=".12"/><path d="M0 1080V324c93.697 14.074 187.395 28.149 253 19 65.605-9.149 103.118-41.52 163-43 59.882-1.48 142.133 27.932 222 37 79.867 9.068 157.348-2.21 219-11 61.652-8.79 107.474-15.096 173-12s150.757 15.592 227 18c76.243 2.408 143.498-5.272 221-16 77.502-10.728 165.25-24.504 250-12 84.75 12.504 166.5 51.287 198 59 31.5 7.713 12.75-15.643-6-39v756z" fill="#0d0d0d" opacity=".18"/><path d="M0 1080V432c62.695-25.024 125.39-50.048 205-40 79.61 10.048 176.135 55.167 256 67 79.865 11.833 143.069-9.62 208-19 64.931-9.38 131.59-6.686 203 0s147.574 17.364 227 8c79.426-9.364 162.114-38.769 216-39 53.886-.231 78.97 28.711 143 30 64.03 1.289 167.008-25.076 264-22 96.992 3.076 187.998 35.593 220 43 32.002 7.407 5.001-10.297-22-28v648z" fill="#0d0d0d" opacity=".24"/><path d="M0 1080V540c67.56-21.552 135.12-43.103 217-40 81.88 3.103 178.08 30.861 243 45 64.92 14.139 98.558 14.658 169 6s177.687-26.493 259-32c81.313-5.507 136.694 1.316 185 10 48.306 8.684 89.538 19.23 167 30s191.155 21.763 259 15c67.845-6.763 89.843-31.282 170-37s218.473 7.366 270 11c51.527 3.634 16.263-2.183-19-8v540z" fill="#0d0d0d" opacity=".3"/><path d="M0 1080V648c59.974 6.995 119.949 13.99 187 7s141.18-27.964 216-41c74.82-13.036 150.33-18.132 225-4 74.67 14.132 148.498 47.494 227 62 78.502 14.506 161.68 10.158 230-2s121.785-32.125 188-46 145.181-21.657 211-6c65.819 15.657 118.49 54.754 198 66 79.51 11.246 185.86-5.358 230-16 44.14-10.642 26.07-15.32 8-20v432z" fill="#0d0d0d" opacity=".36"/><path d="M0 1080V756c69.144-.08 138.287-.162 205-2s130.995-5.434 204-5c73.005.434 154.731 4.898 232 4 77.269-.898 150.08-7.157 233-12 82.92-4.843 175.952-8.268 232-3 56.048 5.268 75.112 19.23 141 25s178.599 3.35 259 3c80.401-.35 128.493 1.367 193 2s145.43.18 185-2c39.57-2.18 37.785-6.09 36-10v324z" fill="#0d0d0d" opacity=".42"/><path d="M0 1080V864c63.638-5.346 127.276-10.693 201-9 73.724 1.693 157.533 10.424 230 15 72.467 4.576 133.593 4.996 199 7 65.407 2.004 135.095 5.593 208-7s149.029-41.368 216-31c66.971 10.368 124.79 59.88 195 60 70.21.12 152.809-49.154 239-54 86.191-4.846 175.975 34.734 246 53s120.293 15.219 148 6c27.707-9.219 32.854-24.61 38-40v216z" fill="#0d0d0d" opacity=".48"/><path d="M0 1080V972c70.273 23.508 140.545 47.016 210 40 69.455-7.016 138.092-44.556 200-57 61.908-12.444 117.085.21 191 7s166.566 7.718 250 16 157.65 23.919 220 15c62.35-8.919 112.831-42.393 189-49 76.169-6.607 178.025 13.652 242 35 63.975 21.348 90.07 43.786 170 31 79.93-12.786 213.694-60.796 264-73 50.306-12.204 17.153 11.398-16 35v108z" fill="#0d0d0d" opacity=".54"/></svg>