<svg width="720" height="720" xmlns="http://www.w3.org/2000/svg"><path fill="#3c00e0" d="M0 0h720v720H0z"/><path d="M0 720V72c17.393-3.697 34.786-7.394 65-10s73.25-4.12 106 0 55.217 13.875 76 19 39.882 5.621 65-3c25.118-8.621 56.255-26.36 88-25 31.745 1.36 64.096 21.818 92 21 27.904-.818 51.359-22.913 74-21 22.641 1.913 44.469 27.832 70 35 25.531 7.168 54.766-4.416 84-16v648z" fill="#0d0d0d" opacity=".06"/><path d="M0 720V144c34.005 10.677 68.01 21.353 94 26 25.99 4.647 43.964 3.264 64-11s42.135-41.408 69-37c26.865 4.408 58.498 40.367 90 41 31.502.633 62.875-34.06 90-39 27.125-4.94 50.003 19.872 74 27s49.115-3.427 77-7c27.885-3.573 58.539-.164 86 1s51.73.082 76-1v576z" fill="#0d0d0d" opacity=".12"/><path d="M0 720V216c35.036-.4 70.071-.801 93 0 22.929.801 33.75 2.803 59 4s64.93 1.587 95 1c30.07-.587 50.533-2.152 70-9s37.937-18.979 69-13c31.063 5.979 74.718 30.066 107 29 32.282-1.066 53.191-27.287 72-33 18.809-5.713 35.517 9.082 61 16 25.483 6.918 59.742 5.959 94 5v504z" fill="#0d0d0d" opacity=".18"/><path d="M0 720V288c18.822 7.678 37.643 15.356 69 12s75.25-17.746 103-17c27.75.746 39.36 16.628 64 24s62.314 6.235 90-1 45.386-20.569 72-28c26.614-7.431 62.144-8.961 94 1s60.038 31.413 80 33c19.962 1.587 31.703-16.69 55-24 23.297-7.31 58.148-3.655 93 0v432z" fill="#0d0d0d" opacity=".24"/><path d="M0 720V360c32.073 1.454 64.147 2.908 91-2 26.853-4.908 48.486-16.179 74-23 25.514-6.821 54.908-9.192 78-2s39.88 23.949 65 21c25.12-2.949 58.57-25.602 92-21s66.837 36.46 91 39c24.163 2.54 39.082-24.24 61-35 21.918-10.76 50.834-5.503 80 1 29.166 6.503 58.583 14.252 88 22v360z" fill="#0d0d0d" opacity=".3"/><path d="M0 720V432c21.81 9.81 43.619 19.62 70 10 26.381-9.62 57.335-38.67 86-35 28.665 3.67 55.043 40.057 84 42 28.957 1.943 60.493-30.56 90-37 29.507-6.44 56.984 13.18 82 23s47.571 9.838 72-1c24.429-10.838 50.73-32.533 76-28 25.27 4.533 49.505 35.295 76 44 26.495 8.705 55.247-4.648 84-18v288z" fill="#0d0d0d" opacity=".36"/><path d="M0 720V504c27.042-9.103 54.083-18.205 85-13 30.917 5.205 65.71 24.718 88 24 22.29-.718 32.08-21.666 52-20 19.92 1.666 49.969 25.945 82 27 32.031 1.055 66.044-21.115 96-33 29.956-11.885 55.854-13.485 84-5s58.54 27.054 80 32c21.46 4.946 33.989-3.73 58-8 24.011-4.27 59.506-4.135 95-4v216z" fill="#0d0d0d" opacity=".42"/><path d="M0 720V576c21.679 6.364 43.358 12.728 73 12 29.642-.728 67.248-8.547 95-16 27.752-7.453 45.65-14.54 67-15 21.35-.46 46.15 5.707 74 17s58.753 27.711 84 19c25.247-8.711 44.84-42.551 75-41 30.16 1.551 70.89 38.495 101 48 30.11 9.505 49.603-8.427 73-17s50.698-7.786 78-7v144z" fill="#0d0d0d" opacity=".48"/><path d="M0 720v-72c33.419.445 66.838.89 91 6 24.162 5.11 39.068 14.885 66 8 26.932-6.885 65.89-30.43 96-34 30.11-3.57 51.37 12.836 78 26 26.63 13.164 58.63 23.085 83 15 24.37-8.085 41.11-34.178 66-44 24.89-9.822 57.932-3.375 82 10 24.068 13.375 39.162 33.679 64 37 24.838 3.321 59.419-10.34 94-24v72z" fill="#0d0d0d" opacity=".54"/></svg>