<?xml version="1.0" standalone="no"?><svg xmlns="http://www.w3.org/2000/svg" viewBox="0 0 1440 320"><path fill="#000000" fill-opacity="1" d="M0,96L24,96C48,96,96,96,144,117.3C192,139,240,181,288,202.7C336,224,384,224,432,213.3C480,203,528,181,576,170.7C624,160,672,160,720,170.7C768,181,816,203,864,208C912,213,960,203,1008,186.7C1056,171,1104,149,1152,144C1200,139,1248,149,1296,149.3C1344,149,1392,139,1416,133.3L1440,128L1440,320L1416,320C1392,320,1344,320,1296,320C1248,320,1200,320,1152,320C1104,320,1056,320,1008,320C960,320,912,320,864,320C816,320,768,320,720,320C672,320,624,320,576,320C528,320,480,320,432,320C384,320,336,320,288,320C240,320,192,320,144,320C96,320,48,320,24,320L0,320Z"></path></svg>